<?xml version="1.0" encoding="UTF-8"?><svg id="_レイヤー_2" xmlns="http://www.w3.org/2000/svg" viewBox="0 0 24.09 24.73"><defs><style>.cls-1{fill:#2237de;}</style></defs><g id="_レイヤー_1-2"><path class="cls-1" d="M.01,13.73C.01,11.6,.02,9.47,0,7.34c0-.4,.12-.62,.47-.81C4.16,4.42,7.85,2.3,11.52,.17c.38-.22,.65-.23,1.04,0,3.64,2.12,7.29,4.22,10.94,6.31,.41,.24,.6,.48,.59,.98-.02,4.22-.02,8.44,0,12.67,0,.43-.16,.65-.52,.85-2.06,1.17-4.11,2.36-6.17,3.55-.52,.3-.55,.29-.55-.3,0-1.69,0-3.38,0-5.07,0-.7,0-.7-.63-.34-1.23,.7-2.46,1.4-3.68,2.13-.36,.21-.62,.24-.99,.02-1.25-.75-2.53-1.44-3.77-2.19-.49-.3-.53-.11-.52,.32,.01,1.73,0,3.45,0,5.18,0,.57-.03,.58-.53,.3-2.06-1.18-4.11-2.37-6.17-3.54C.16,20.78,0,20.53,0,20.06c.03-2.11,.01-4.22,.01-6.33h0Zm5.48,1.67c0-1.88,0-3.76,0-5.64,0-.68,.03-.7,.6-.37,1.81,1.04,3.62,2.08,5.42,3.13,.37,.22,.66,.24,1.04,.01,1.03-.63,2.07-1.24,3.13-1.81,.46-.25,.36-.37-.01-.58-2.86-1.63-5.71-3.27-8.55-4.92-.31-.18-.54-.18-.84,0-1.37,.8-2.75,1.59-4.13,2.37-.28,.16-.41,.33-.41,.67,.01,3.64,0,7.29,0,10.93,0,.33,.11,.53,.4,.69,.95,.53,1.91,1.06,2.83,1.63,.46,.29,.54,.16,.53-.31-.01-1.94,0-3.87,0-5.81Zm16.81-1.03c0-1.61,0-3.22,0-4.83,0-.6-.03-.61-.56-.3-3.08,1.78-6.17,3.55-9.24,5.34-.34,.2-.6,.21-.94,0-1.28-.76-2.59-1.48-3.87-2.25-.37-.22-.45-.14-.45,.25,0,1.15,.01,2.3,0,3.45,0,.31,.12,.5,.38,.64,1.33,.76,2.66,1.51,3.98,2.29,.32,.19,.57,.18,.89-.01,1.83-1.08,3.67-2.13,5.51-3.19,.55-.32,.57-.3,.57,.35,0,1.69,0,3.38,0,5.06,0,.58,.05,.61,.57,.31,.9-.51,1.78-1.05,2.69-1.53,.38-.2,.49-.46,.48-.87-.02-1.57,0-3.15,0-4.72Zm-4.4-4.98c.07-.03,.13-.04,.18-.07,1.03-.59,2.06-1.17,3.09-1.76,.3-.17,.18-.29-.06-.43-2.91-1.66-5.81-3.33-8.7-5.01-.27-.16-.47-.16-.74,0-.89,.53-1.79,1.03-2.69,1.54-.51,.3-.51,.33,.02,.63,2.83,1.64,5.67,3.27,8.5,4.9,.13,.08,.27,.13,.4,.2Z"/></g></svg>