<?xml version="1.0" encoding="UTF-8"?><svg id="_レイヤー_2" xmlns="http://www.w3.org/2000/svg" viewBox="0 0 136.12 20.29"><defs><style>.cls-1{fill:#fff;}.cls-2{fill:#dedede;}</style></defs><g id="_レイヤー_1-2"><g><g><path class="cls-1" d="m34.39,6.32h2.93v2.55h-2.85v8.62h-3.31v-8.62h-1.76v-2.55h1.76v-.51c0-2.57,1.57-4.25,4.42-4.25.93,0,1.91.19,2.53.62l-.87,2.4c-.36-.25-.83-.4-1.34-.4-.98,0-1.51.53-1.51,1.66v.49Z"/><path class="cls-1" d="m37.6,11.77c0-3.44,2.66-5.88,6.29-5.88s6.27,2.44,6.27,5.88-2.63,5.88-6.27,5.88-6.29-2.44-6.29-5.88Zm9.2,0c0-1.98-1.25-3.17-2.91-3.17s-2.93,1.19-2.93,3.17,1.27,3.17,2.93,3.17,2.91-1.19,2.91-3.17Z"/><path class="cls-1" d="m58.93,5.89v3.06c-.28-.02-.49-.04-.74-.04-1.83,0-3.04,1-3.04,3.19v5.4h-3.31V6.06h3.17v1.51c.81-1.1,2.17-1.68,3.93-1.68Z"/><path class="cls-1" d="m79.77,10.95v6.54h-3.31v-6.03c0-1.85-.83-2.7-2.17-2.7-1.49,0-2.53.96-2.53,3v5.74h-3.31v-6.03c0-1.85-.79-2.7-2.17-2.7-1.47,0-2.51.96-2.51,3v5.74h-3.31V6.06h3.16v1.32c.85-.98,2.12-1.49,3.59-1.49,1.59,0,2.95.62,3.76,1.87.91-1.17,2.4-1.87,4.12-1.87,2.72,0,4.67,1.57,4.67,5.06Z"/><path class="cls-1" d="m100.56,6.06l-4.14,11.43h-3.19l-2.57-7.09-2.66,7.09h-3.19l-4.12-11.43h3.12l2.7,7.73,2.8-7.73h2.8l2.72,7.73,2.78-7.73h2.93Z"/><path class="cls-1" d="m100.73,11.77c0-3.44,2.66-5.88,6.29-5.88s6.27,2.44,6.27,5.88-2.63,5.88-6.27,5.88-6.29-2.44-6.29-5.88Zm9.2,0c0-1.98-1.25-3.17-2.91-3.17s-2.93,1.19-2.93,3.17,1.27,3.17,2.93,3.17,2.91-1.19,2.91-3.17Z"/><path class="cls-1" d="m122.06,5.89v3.06c-.28-.02-.49-.04-.74-.04-1.83,0-3.04,1-3.04,3.19v5.4h-3.31V6.06h3.16v1.51c.81-1.1,2.17-1.68,3.93-1.68Z"/><path class="cls-1" d="m128.5,13.01l-1.59,1.57v2.91h-3.31V1.73h3.31v8.92l4.84-4.59h3.95l-4.76,4.84,5.18,6.59h-4.01l-3.61-4.48Z"/></g><g><rect class="cls-2" x="-1" y="3.95" width="20.25" height="4.61" rx="2.31" ry="2.31" transform="translate(-1.9 5.36) rotate(-29.78)"/><rect class="cls-2" x="-1.03" y="11.79" width="20.25" height="4.61" rx="2.31" ry="2.31" transform="translate(-5.8 6.38) rotate(-29.78)"/><rect class="cls-1" x=".04" y="0" width="18.22" height="4.61" rx="2.31" ry="2.31"/><rect class="cls-1" x=".04" y="7.84" width="18.22" height="4.61" rx="2.31" ry="2.31"/><rect class="cls-1" x=".04" y="15.68" width="4.61" height="4.61" rx="2.31" ry="2.31"/></g></g></g></svg>