<?xml version="1.0" encoding="UTF-8"?><svg id="_レイヤー_2" xmlns="http://www.w3.org/2000/svg" viewBox="0 0 168.48 24.73"><defs><style>.cls-1{fill:#f0f0f0;}.cls-2{fill:#fff;}</style></defs><g id="_レイヤー_1-2"><g><g><path class="cls-2" d="M45.35,5.29h-7.43v5.13h7.17v3.03h-7.17v10.16h-3.22V2.26h10.65v3.03Z"/><path class="cls-2" d="M47.15,16.77c0-1.94,.7-3.6,2.09-4.96,1.39-1.36,3.09-2.05,5.09-2.05s3.71,.69,5.11,2.06c1.38,1.37,2.07,3.06,2.07,5.06s-.7,3.71-2.09,5.07c-1.4,1.35-3.12,2.03-5.15,2.03s-3.71-.69-5.07-2.07c-1.36-1.36-2.05-3.08-2.05-5.14Zm3.18,.06c0,1.34,.36,2.41,1.08,3.19,.74,.79,1.71,1.19,2.92,1.19s2.19-.39,2.92-1.17c.73-.78,1.09-1.83,1.09-3.14s-.36-2.35-1.09-3.14c-.74-.79-1.71-1.19-2.92-1.19s-2.15,.4-2.89,1.19c-.74,.79-1.11,1.81-1.11,3.07Z"/><path class="cls-2" d="M64.09,10.14h3.11v1.2c.57-.6,1.08-1.01,1.52-1.23,.45-.23,.99-.35,1.6-.35,.82,0,1.68,.27,2.57,.8l-1.42,2.85c-.59-.42-1.17-.64-1.73-.64-1.7,0-2.54,1.28-2.54,3.84v6.98h-3.11V10.14Z"/><path class="cls-2" d="M73.96,10.14h3.11v1.24c.6-.63,1.11-1.05,1.53-1.27,.45-.23,1.02-.35,1.7-.35,1.52,0,2.72,.66,3.61,1.99,.98-1.33,2.3-1.99,3.97-1.99,3.03,0,4.55,1.84,4.55,5.51v8.32h-3.12v-7.48c0-1.29-.16-2.2-.47-2.74-.32-.54-.85-.82-1.59-.82-.86,0-1.48,.32-1.87,.97-.39,.64-.59,1.68-.59,3.11v6.95h-3.12v-7.43c0-2.4-.69-3.59-2.07-3.59-.88,0-1.51,.33-1.91,.98-.4,.65-.6,1.69-.6,3.1v6.95h-3.11V10.14Z"/><path class="cls-2" d="M89.27,10.14h3.11v1.24c.6-.63,1.11-1.05,1.53-1.27,.45-.23,1.02-.35,1.7-.35,1.52,0,2.72,.66,3.61,1.99,.98-1.33,2.3-1.99,3.97-1.99,3.03,0,4.55,1.84,4.55,5.51v8.32h-3.12v-7.48c0-1.29-.16-2.2-.47-2.74-.32-.54-.85-.82-1.59-.82-.86,0-1.48,.32-1.87,.97-.39,.64-.59,1.68-.59,3.11v6.95h-3.12v-7.43c0-2.4-.69-3.59-2.07-3.59-.88,0-1.51,.33-1.91,.98-.4,.65-.6,1.69-.6,3.1v6.95h-3.11V10.14Z"/><path class="cls-2" d="M120.87,10.14h3.12v13.46h-3.12v-1.41c-1.28,1.2-2.66,1.8-4.13,1.8-1.86,0-3.4-.67-4.62-2.02-1.21-1.37-1.81-3.09-1.81-5.14s.6-3.7,1.81-5.04c1.21-1.34,2.72-2.02,4.53-2.02,1.57,0,2.97,.64,4.21,1.93v-1.56Zm-7.38,6.69c0,1.29,.35,2.34,1.04,3.15,.71,.82,1.6,1.23,2.68,1.23,1.15,0,2.08-.4,2.79-1.19,.71-.82,1.06-1.86,1.06-3.12s-.35-2.3-1.06-3.12c-.71-.8-1.63-1.2-2.76-1.2-1.07,0-1.96,.41-2.68,1.22-.71,.82-1.06,1.83-1.06,3.04Z"/><path class="cls-2" d="M130.42,13.04v10.56h-3.11V13.04h-1.33v-2.9h1.33V5.21h3.11v4.93h2.42v2.9h-2.42Z"/><path class="cls-2" d="M133.77,4.54c0-.54,.2-1.01,.59-1.41s.87-.59,1.42-.59,1.04,.2,1.44,.59c.4,.39,.59,.86,.59,1.42s-.2,1.04-.59,1.44c-.39,.4-.86,.59-1.42,.59s-1.04-.2-1.44-.59c-.4-.4-.59-.88-.59-1.45Zm3.58,5.6v13.46h-3.11V10.14h3.11Z"/><path class="cls-2" d="M139.94,16.77c0-1.94,.7-3.6,2.09-4.96,1.39-1.36,3.09-2.05,5.09-2.05s3.71,.69,5.11,2.06c1.38,1.37,2.07,3.06,2.07,5.06s-.7,3.71-2.09,5.07c-1.4,1.35-3.12,2.03-5.15,2.03s-3.71-.69-5.07-2.07c-1.36-1.36-2.05-3.08-2.05-5.14Zm3.18,.06c0,1.34,.36,2.41,1.08,3.19,.74,.79,1.71,1.19,2.92,1.19s2.19-.39,2.92-1.17c.73-.78,1.09-1.83,1.09-3.14s-.36-2.35-1.09-3.14c-.74-.79-1.71-1.19-2.92-1.19s-2.15,.4-2.89,1.19c-.74,.79-1.11,1.81-1.11,3.07Z"/><path class="cls-2" d="M156.88,10.14h3.12v1.24c1.09-1.08,2.31-1.62,3.68-1.62,1.57,0,2.79,.49,3.66,1.48,.76,.84,1.13,2.21,1.13,4.1v8.25h-3.12v-7.52c0-1.33-.18-2.24-.55-2.75-.36-.52-1.01-.77-1.96-.77-1.03,0-1.76,.34-2.2,1.02-.42,.67-.64,1.85-.64,3.52v6.49h-3.12V10.14Z"/></g><path class="cls-1" d="M.01,13.73C.01,11.6,.02,9.47,0,7.34c0-.4,.12-.62,.47-.81C4.16,4.42,7.85,2.3,11.52,.17c.38-.22,.65-.23,1.04,0,3.64,2.12,7.29,4.22,10.94,6.31,.41,.24,.6,.48,.59,.98-.02,4.22-.02,8.44,0,12.67,0,.43-.16,.65-.52,.85-2.06,1.17-4.11,2.36-6.17,3.55-.52,.3-.55,.29-.55-.3,0-1.69,0-3.38,0-5.07,0-.7,0-.7-.63-.34-1.23,.7-2.46,1.4-3.68,2.13-.36,.21-.62,.24-.99,.02-1.25-.75-2.53-1.44-3.77-2.19-.49-.3-.53-.11-.52,.32,.01,1.73,0,3.45,0,5.18,0,.57-.03,.58-.53,.3-2.06-1.18-4.11-2.37-6.17-3.54C.16,20.78,0,20.53,0,20.06c.03-2.11,.01-4.22,.01-6.33h0Zm5.48,1.67c0-1.88,0-3.76,0-5.64,0-.68,.03-.7,.6-.37,1.81,1.04,3.62,2.08,5.42,3.13,.37,.22,.66,.24,1.04,.01,1.03-.63,2.07-1.24,3.13-1.81,.46-.25,.36-.37-.01-.58-2.86-1.63-5.71-3.27-8.55-4.92-.31-.18-.54-.18-.84,0-1.37,.8-2.75,1.59-4.13,2.37-.28,.16-.41,.33-.41,.67,.01,3.64,0,7.29,0,10.93,0,.33,.11,.53,.4,.69,.95,.53,1.91,1.06,2.83,1.63,.46,.29,.54,.16,.53-.31-.01-1.94,0-3.87,0-5.81Zm16.81-1.03c0-1.61,0-3.22,0-4.83,0-.6-.03-.61-.56-.3-3.08,1.78-6.17,3.55-9.24,5.34-.34,.2-.6,.21-.94,0-1.28-.76-2.59-1.48-3.87-2.25-.37-.22-.45-.14-.45,.25,0,1.15,.01,2.3,0,3.45,0,.31,.12,.5,.38,.64,1.33,.76,2.66,1.51,3.98,2.29,.32,.19,.57,.18,.89-.01,1.83-1.08,3.67-2.13,5.51-3.19,.55-.32,.57-.3,.57,.35,0,1.69,0,3.38,0,5.06,0,.58,.05,.61,.57,.31,.9-.51,1.78-1.05,2.69-1.53,.38-.2,.49-.46,.48-.87-.02-1.57,0-3.15,0-4.72Zm-4.4-4.98c.07-.03,.13-.04,.18-.07,1.03-.59,2.06-1.17,3.09-1.76,.3-.17,.18-.29-.06-.43-2.91-1.66-5.81-3.33-8.7-5.01-.27-.16-.47-.16-.74,0-.89,.53-1.79,1.03-2.69,1.54-.51,.3-.51,.33,.02,.63,2.83,1.64,5.67,3.27,8.5,4.9,.13,.08,.27,.13,.4,.2Z"/></g></g></svg>